<?xml version="1.0" encoding="UTF-8"?>
<svg version="1.1" xmlns="http://www.w3.org/2000/svg" width="500" height="500">
<path d="M0 0 C0.60183105 0.2676416 1.20366211 0.5352832 1.82373047 0.81103516 C17.84469175 8.01782267 31.06765043 18.15755597 43 31 C46.33331289 29.8888957 46.79769936 29.23715912 48.875 26.5625 C52.16241619 22.66708855 55.78873814 19.59004986 59.8125 16.5 C60.38790527 16.05470947 60.96331055 15.60941895 61.55615234 15.15063477 C65.7359821 12 65.7359821 12 68 12 C68 11.34 68 10.68 68 10 C78.11944316 4.43462429 87.87026713 -0.74723447 99 -4 C100.25498648 -4.48734888 101.50544829 -4.98658882 102.75 -5.5 C106.61084838 -6.96280591 110.56969621 -8.02839254 114.5625 -9.0625 C115.80128906 -9.38347656 117.04007812 -9.70445313 118.31640625 -10.03515625 C130.66155273 -12.75394446 142.81462434 -13.32235306 155.39746094 -13.26074219 C157.99698192 -13.25001246 160.59581216 -13.26070925 163.1953125 -13.2734375 C190.7428077 -13.29826448 190.7428077 -13.29826448 197 -9 C199.25087401 -5.8017167 199.23446182 -2.97725884 199.1953125 0.859375 C199.18886719 1.97441406 199.18242187 3.08945313 199.17578125 4.23828125 C199.15902344 5.39714844 199.14226562 6.55601563 199.125 7.75 C199.11597656 8.92433594 199.10695313 10.09867188 199.09765625 11.30859375 C199.07410063 14.20593536 199.04120652 17.10286441 199 20 C199.68102783 19.99476318 200.36205566 19.98952637 201.0637207 19.98413086 C204.14663777 19.96335542 207.2295401 19.95033802 210.3125 19.9375 C211.38435547 19.92912109 212.45621094 19.92074219 213.56054688 19.91210938 C214.58857422 19.90888672 215.61660156 19.90566406 216.67578125 19.90234375 C217.62364502 19.89710693 218.57150879 19.89187012 219.5480957 19.88647461 C222 20 222 20 225 21 C225 21.66 225 22.32 225 23 C225.66 23 226.32 23 227 23 C229.11024286 28.19991496 229.28511619 32.70333932 229.26069641 38.21629333 C229.26452196 39.1352802 229.26834751 40.05426707 229.27228898 41.00110203 C229.28259467 44.07558155 229.27863143 47.14987347 229.2746582 50.22436523 C229.279006 52.43061496 229.28418937 54.63686317 229.29014587 56.84310913 C229.30353931 62.83271925 229.30411418 68.82226628 229.30158257 74.81188846 C229.30051318 79.81201532 229.3053954 84.81212941 229.310188 89.81225353 C229.32191864 102.2820778 229.32105739 114.75187143 229.31463119 127.22169585 C229.30946182 138.04481992 229.32071886 148.867854 229.33972941 159.69096028 C229.3591125 170.81164233 229.36707166 181.9322878 229.36360615 193.05298764 C229.36179234 199.29342323 229.3644394 205.53377637 229.37832069 211.77419853 C229.39088492 217.64208731 229.38896811 223.50979577 229.37590981 229.37768173 C229.37354149 231.53073627 229.37628782 233.68380344 229.38453293 235.83684349 C229.39498018 238.77701305 229.38691571 241.71657531 229.3742218 244.65672302 C229.38159609 245.50770378 229.38897037 246.35868454 229.39656812 247.23545259 C229.34829338 252.55425821 228.56897107 256.30538741 226 261 C222.59566223 263.26955851 221.43087284 263.24781495 217.43818665 263.24050903 C216.28132355 263.24325836 215.12446045 263.24600769 213.93254089 263.24884033 C212.66227554 263.24164978 211.39201019 263.23445923 210.08325195 263.22705078 C208.733073 263.22648668 207.38289344 263.22680321 206.03271484 263.22793579 C202.36560047 263.22851034 198.69861655 263.2167395 195.03153253 263.20278788 C191.19983596 263.19029759 187.36813651 263.18911136 183.53642273 263.18673706 C176.27976205 263.18051728 169.02316153 263.16409974 161.76652735 263.14403808 C153.50543842 263.12169456 145.24434663 263.11068955 136.983235 263.10064721 C119.98878852 263.07973394 102.99440062 263.0445483 86 263 C86.01587158 264.26166992 86.03174316 265.52333984 86.0480957 266.82324219 C86.09250798 270.35367975 85.5993329 272.97158652 84.1875 276.25 C83.85105469 277.05953125 83.51460937 277.8690625 83.16796875 278.703125 C81.97438989 281.0503637 80.73310867 283.01670504 79 285 C78.34 285 77.68 285 77 285 C77 285.66 77 286.32 77 287 C75.58671871 287.81837442 74.16921654 288.62946219 72.75 289.4375 C71.96109375 289.88996094 71.1721875 290.34242188 70.359375 290.80859375 C66.87016134 292.57053111 63.78079155 293.1231244 59.89331055 293.16113281 C59.09535568 293.17074036 58.29740082 293.1803479 57.4752655 293.19024658 C56.19393486 293.1966214 56.19393486 293.1966214 54.88671875 293.203125 C53.99894241 293.20882507 53.11116608 293.21452515 52.19648743 293.22039795 C50.31956163 293.229833 48.44261938 293.23637599 46.56567383 293.24023438 C43.70819887 293.24992977 40.8514466 293.28096295 37.99414062 293.3125 C36.16667092 293.31903172 34.33919609 293.32428153 32.51171875 293.328125 C31.66357101 293.3404718 30.81542328 293.3528186 29.9415741 293.36553955 C22.60026801 293.33825236 17.08444419 291.24067323 11 287 C11 286.34 11 285.68 11 285 C10.34 285 9.68 285 9 285 C7.52734375 282.953125 7.52734375 282.953125 5.9375 280.25 C5.41027344 279.36828125 4.88304687 278.4865625 4.33984375 277.578125 C1.75695566 272.60813625 1.97176016 268.51827348 2 263 C1.29854764 263.00460896 0.59709528 263.00921793 -0.12561321 263.01396656 C-17.19324121 263.12438672 -34.26077849 263.20712769 -51.32868481 263.25906086 C-59.58261632 263.28484292 -67.83630941 263.31999321 -76.09008789 263.37719727 C-83.28407443 263.4270325 -90.47788831 263.45929101 -97.67204267 263.47044247 C-101.4814153 263.47696115 -105.29029397 263.49228101 -109.09950829 263.52865028 C-112.68567727 263.56261228 -116.27114931 263.57305295 -119.85746384 263.56553841 C-121.7996332 263.56756784 -123.74172681 263.5944622 -125.68370056 263.62210083 C-135.1793619 263.5658176 -135.1793619 263.5658176 -138.25898743 260.58952332 C-141.31734674 256.04062293 -141.14829165 252.46186367 -141.14717102 247.10614014 C-141.15084771 246.17353119 -141.1545244 245.24092225 -141.1583125 244.28005242 C-141.16938025 241.13558937 -141.1731984 237.99115933 -141.17700195 234.84667969 C-141.18326425 232.59998977 -141.18991084 230.35330089 -141.19691467 228.10661316 C-141.21434574 221.98875885 -141.22488209 215.87091237 -141.2331202 209.75303936 C-141.23826569 205.93342387 -141.24434161 202.11381084 -141.25063133 198.29419708 C-141.26750389 187.7204454 -141.2821389 177.14669587 -141.28938007 166.5729332 C-141.29129 163.82840727 -141.29321032 161.08388136 -141.29516602 158.33935547 C-141.29564976 157.65720955 -141.2961335 156.97506363 -141.2966319 156.27224663 C-141.30493224 145.22184835 -141.33026868 134.17155833 -141.36274669 123.12120733 C-141.39581368 111.77804423 -141.41349571 100.43495553 -141.41702431 89.09173703 C-141.41937848 82.72212453 -141.42838662 76.35268308 -141.45348549 69.98311615 C-141.47671375 63.99132373 -141.48102046 57.99981561 -141.47072411 52.00798988 C-141.47022736 49.80774555 -141.47658831 47.60748748 -141.49028015 45.40728569 C-141.50791854 42.40511219 -141.50093223 39.40396786 -141.48774719 36.40179443 C-141.49871644 35.52960856 -141.50968568 34.65742269 -141.52098733 33.75880694 C-141.46396994 28.38716819 -140.65303113 25.21449019 -137 21 C-131.47721603 18.58679852 -125.97773081 18.75804487 -120.0625 18.875 C-119.18787109 18.88402344 -118.31324219 18.89304688 -117.41210938 18.90234375 C-115.27461936 18.9257043 -113.13727214 18.96156753 -111 19 C-111.02094727 18.23333008 -111.04189453 17.46666016 -111.06347656 16.67675781 C-111.14665158 13.2013054 -111.19866575 9.72606237 -111.25 6.25 C-111.28351563 5.0434375 -111.31703125 3.836875 -111.3515625 2.59375 C-111.36445312 1.43359375 -111.37734375 0.2734375 -111.390625 -0.921875 C-111.41157227 -1.99018555 -111.43251953 -3.05849609 -111.45410156 -4.15917969 C-110.88484325 -7.72041069 -109.82745331 -8.82700922 -107 -11 C-101.38603114 -12.83967267 -96.00200055 -13.38989536 -90.125 -13.625 C-88.89269653 -13.68083252 -88.89269653 -13.68083252 -87.63549805 -13.73779297 C-57.25607817 -14.99839802 -28.03475633 -12.70591022 0 0 Z M-93 5 C-93 69.35 -93 133.7 -93 200 C-76.17 200.495 -76.17 200.495 -59 201 C-30.21103066 204.83852925 -5.26899611 212.22240118 19.22924805 227.97192383 C21.13204753 229.15671304 21.13204753 229.15671304 24 230 C24 230.66 24 231.32 24 232 C25.5910643 233.43802182 27.2486015 234.80325335 28.9375 236.125 C29.85402344 236.84945312 30.77054687 237.57390625 31.71484375 238.3203125 C33.66161306 240.09870983 33.66161306 240.09870983 35 240 C35.16364846 215.66067008 35.2870234 191.32142282 35.3626852 166.98165321 C35.39875288 155.67980158 35.44791114 144.37829213 35.52807617 133.07666016 C35.59792897 123.22413124 35.6430272 113.37185019 35.65861946 103.51908052 C35.66773151 98.30378616 35.68908918 93.08920079 35.7401104 87.87413406 C35.78778927 82.96067595 35.80224762 78.04821567 35.79175377 73.13454819 C35.79367219 71.33585427 35.80749882 69.53712539 35.83443832 67.7386322 C35.98182168 57.38745013 35.50896845 49.8716762 28 42 C27.4604087 41.36971201 26.92081739 40.73942402 26.36487484 40.09003639 C24.97240765 38.46387056 23.51702821 36.9477243 22 35.4375 C21.45384033 34.89230713 20.90768066 34.34711426 20.3449707 33.78540039 C14.29698625 27.98639542 7.39100793 23.86280645 0 20 C-0.63373535 19.6611377 -1.2674707 19.32227539 -1.92041016 18.97314453 C-6.72875611 16.47005633 -11.57832977 14.60960911 -16.75 13 C-17.55912842 12.74581299 -18.36825684 12.49162598 -19.2019043 12.22973633 C-27.66714124 9.65872828 -36.27577904 7.90265825 -44.98046875 6.35839844 C-46.6115234 6.06894145 -48.23823161 5.7550565 -49.86328125 5.43359375 C-54.68546102 4.76701597 -59.51422259 4.5834066 -64.375 4.375 C-65.35855469 4.3234375 -66.34210938 4.271875 -67.35546875 4.21875 C-76.0806276 3.83793434 -84.13737644 4.44608603 -93 5 Z M82 23 C80.94039062 23.58523437 79.88078125 24.17046875 78.7890625 24.7734375 C75.30162425 26.74597173 75.30162425 26.74597173 72 29 C72 29.66 72 30.32 72 31 C71.43023437 31.24621094 70.86046875 31.49242187 70.2734375 31.74609375 C67.61510952 33.21228495 65.77704823 34.92177834 63.625 37.0625 C62.89539063 37.77535156 62.16578125 38.48820312 61.4140625 39.22265625 C60.61742187 40.13917969 59.82078125 41.05570313 59 42 C58.4969805 42.52818549 57.99396099 43.05637098 57.47569847 43.6005621 C51.26218804 51.1959562 52.19942014 59.91650463 52.31884766 69.18774414 C52.3205419 71.03141219 52.31958659 72.87508429 52.31619263 74.71875 C52.31447643 79.7039534 52.34966547 84.68828443 52.39163637 89.67328572 C52.42923318 94.89025359 52.43267579 100.10724312 52.43978882 105.32432556 C52.45841137 115.19464807 52.5076134 125.06457017 52.56788576 134.93471664 C52.6350315 146.1752836 52.66796019 157.41587003 52.69805837 168.65658772 C52.76071466 191.77128016 52.86619937 214.88561761 53 238 C53.66 238.33 54.32 238.66 55 239 C55 238.34 55 237.68 55 237 C55.55558594 236.74605469 56.11117187 236.49210938 56.68359375 236.23046875 C59.35294965 234.8125141 61.64385211 233.1255954 64.0625 231.3125 C78.12309721 221.01381092 92.37135278 214.16907369 109 209 C110.02738281 208.65066406 111.05476563 208.30132812 112.11328125 207.94140625 C129.6231966 202.33736111 148.13230123 200.82268646 166.41015625 200.38671875 C167.83729806 200.34744278 169.26442245 200.30752845 170.69152832 200.26696777 C174.12751742 200.17066215 177.56365677 200.08284477 181 200 C181.02332597 174.85319785 181.04097769 149.70639731 181.05181217 124.55958652 C181.05697577 112.88436586 181.06401969 101.20915191 181.07543945 89.53393555 C181.08538434 79.36177327 181.09185296 69.18961585 181.09408849 59.01744884 C181.09539594 53.6278075 181.09848388 48.23818006 181.10573006 42.84854317 C181.11248719 37.78188566 181.11461759 32.71524786 181.11310768 27.64858627 C181.11338415 25.78327642 181.11539108 23.91796596 181.11920547 22.05265999 C181.12413794 19.51750892 181.12299996 16.98243349 181.12025452 14.44728088 C181.12316736 13.6992407 181.1260802 12.95120052 181.12908131 12.18049246 C181.41888301 8.80420842 181.41888301 8.80420842 180 6 C147.94643258 -0.45716793 110.18210918 7.22249475 82 23 Z M-122 39 C-122.71019333 44.75884718 -123.14548481 50.36037637 -123.12698364 56.15893555 C-123.12854363 56.92798312 -123.13010362 57.6970307 -123.13171089 58.48938274 C-123.13566504 61.03851487 -123.1325531 63.58758629 -123.12939453 66.13671875 C-123.13075105 67.97563715 -123.1325324 69.81455528 -123.13470459 71.6534729 C-123.13924906 76.628599 -123.13750166 81.60370427 -123.1343255 86.57883072 C-123.13178646 91.79563705 -123.13414374 97.01244164 -123.13571167 102.22924805 C-123.13752885 110.98844725 -123.13513888 119.74763801 -123.13037109 128.50683594 C-123.12492935 138.62075445 -123.12669232 148.7346528 -123.1321975 158.84857082 C-123.13674146 167.54606263 -123.13737289 176.24354838 -123.13475883 184.94104099 C-123.13320313 190.1295918 -123.13298291 195.31813315 -123.13629532 200.50668335 C-123.13919268 205.38553177 -123.13716413 210.26435429 -123.13140106 215.14319992 C-123.13008346 216.92936536 -123.13045054 218.71553299 -123.13266373 220.50169754 C-123.13541467 222.94818219 -123.13194626 225.39458495 -123.12698364 227.84106445 C-123.12921436 228.54020808 -123.13144509 229.23935171 -123.13374341 229.95968151 C-123.11365514 235.09969078 -122.57626037 239.8136567 -122 245 C-77.12 245 -32.24 245 14 245 C-10.89921091 225.08063127 -45.48444065 217.46757364 -76.89453125 217.98046875 C-77.71129837 217.99375214 -78.52806549 218.00703552 -79.36958313 218.02072144 C-82.70578453 218.08490643 -86.04100756 218.16347581 -89.3762207 218.26733398 C-91.86157521 218.33975522 -94.34593314 218.38095038 -96.83203125 218.41796875 C-97.95542656 218.46608955 -97.95542656 218.46608955 -99.10151672 218.5151825 C-102.83897458 218.5515455 -104.70944649 218.22452119 -107.6956892 215.91694355 C-110.57647472 212.27026154 -110.62926573 210.40280983 -110.63923645 205.79301453 C-110.64759213 205.07820429 -110.6559478 204.36339406 -110.66455668 203.62692291 C-110.68646309 201.23735497 -110.67288822 198.84932746 -110.65942383 196.4597168 C-110.66787765 194.74470351 -110.67852204 193.02969984 -110.69119263 191.31471252 C-110.71935812 186.66213072 -110.71686399 182.01000964 -110.70889878 177.35736823 C-110.70577562 172.49393891 -110.73080249 167.63065681 -110.75285339 162.76728821 C-110.79032093 153.55927689 -110.80244299 144.35141327 -110.8054778 135.14333326 C-110.81016568 124.65966958 -110.84308035 114.17615414 -110.87837565 103.69255579 C-110.9503432 82.12838739 -110.98683221 60.56427919 -111 39 C-114.63 39 -118.26 39 -122 39 Z M199 39 C198.99945523 39.89214046 198.99891047 40.78428091 198.99834919 41.70345592 C198.98338735 63.40283998 198.94096471 85.10201843 198.86790943 106.80128765 C198.83324397 117.29487626 198.80790187 127.7883333 198.80444336 138.28198242 C198.80140563 147.42737097 198.78094095 156.57252528 198.73947543 165.71782333 C198.71812634 170.56106382 198.70555461 175.40397115 198.71384621 180.24725914 C198.72137428 184.80530945 198.70561452 189.36268401 198.67193985 193.92061043 C198.66369152 195.59393701 198.66397437 197.26733059 198.67340279 198.94065094 C198.68500335 201.22557065 198.66594369 203.50826775 198.63923645 205.79301453 C198.63647107 207.0715414 198.63370569 208.35006826 198.63085651 209.66733837 C197.83067476 213.8945041 196.35518879 215.38609878 193 218 C189.6003418 218.52001953 189.6003418 218.52001953 185.69921875 218.3828125 C184.99432816 218.36735382 184.28943756 218.35189514 183.56318665 218.33596802 C182.05383034 218.30222542 180.54467543 218.25816781 179.03588867 218.20471191 C175.07032718 218.07010792 171.10423081 218.0286755 167.13671875 217.9921875 C166.34868866 217.98429199 165.56065857 217.97639648 164.74874878 217.96826172 C154.34680676 217.91402208 144.23721358 219.26395542 134 221 C132.81374023 221.17692383 132.81374023 221.17692383 131.60351562 221.35742188 C114.04788824 223.98853623 95.1044382 230.63701492 80 240 C80 240.66 80 241.32 80 242 C77.525 242.99 77.525 242.99 75 244 C75 244.33 75 244.66 75 245 C119.55 245 164.1 245 210 245 C210 177.02 210 109.04 210 39 C206.37 39 202.74 39 199 39 Z M20 263 C19.7577403 267.69110591 19.7577403 267.69110591 21.875 271.8125 C25.07500914 275.10662706 27.06913428 275.13852842 31.58711243 275.24154663 C34.81042435 275.28609607 38.03353209 275.32706564 41.25708008 275.35009766 C42.95546174 275.36664824 44.65377401 275.39392685 46.35180664 275.43212891 C48.80391463 275.48699658 51.25439147 275.50878513 53.70703125 275.5234375 C54.84009453 275.55744156 54.84009453 275.55744156 55.99604797 275.59213257 C60.08461693 275.57581048 61.77322613 275.1895183 64.95581055 272.52978516 C65.63039307 271.69495605 66.30497559 270.86012695 67 270 C67.33 269.67 67.66 269.34 68 269 C68.04063832 267.33382885 68.042721 265.66611905 68 264 C65.62609164 262.81304582 64.19755049 262.87924167 61.55029297 262.88647461 C60.16908768 262.88658791 60.16908768 262.88658791 58.75997925 262.88670349 C57.76410797 262.89186478 56.76823669 262.89702606 55.7421875 262.90234375 C54.21490524 262.90446617 54.21490524 262.90446617 52.6567688 262.90663147 C49.39614965 262.912241 46.13559849 262.92479512 42.875 262.9375 C40.66796974 262.94251377 38.46093841 262.94707689 36.25390625 262.95117188 C30.83591419 262.96221352 25.41796195 262.97896095 20 263 Z " fill="#565E5D" transform="translate(206,111)"/>
<path d="M0 0 C0.33 0 0.66 0 1 0 C1.33 63.03 1.66 126.06 2 191 C1.34 191 0.68 191 0 191 C-0.90765585 186.38530305 -1.12768137 181.94079562 -1.08229065 177.25515747 C-1.07906152 176.49457373 -1.07583239 175.73399 -1.07250541 174.95035827 C-1.06048127 172.4123284 -1.04109812 169.87440941 -1.02172852 167.33642578 C-1.01158032 165.51290626 -1.00188724 163.68938417 -0.99261475 161.86585999 C-0.96618791 156.92212246 -0.9333974 151.97844522 -0.89946485 147.03475428 C-0.86506814 141.86579133 -0.83652326 136.69679615 -0.80735779 131.52780151 C-0.7512563 121.74254147 -0.68989165 111.9573218 -0.62663645 102.17210567 C-0.55487075 91.03072694 -0.48897187 79.88931593 -0.42356598 68.74789834 C-0.2889057 45.83189033 -0.1468772 22.91593273 0 0 Z " fill="#3D4542" transform="translate(257,162)"/>
<path d="M0 0 C4.23322844 0.62045463 7.52290295 2.10523559 11.3125 4.0625 C12.38113281 4.61035156 13.44976562 5.15820312 14.55078125 5.72265625 C15.35902344 6.14417969 16.16726562 6.56570313 17 7 C14.07582331 9.47975336 13.39204356 10.00675937 9.375 9.9375 C6 9 6 9 4.6875 7.0625 C4.3471875 6.0415625 4.3471875 6.0415625 4 5 C3.34 4.34 2.68 3.68 2 3 C1.34 3 0.68 3 0 3 C0 2.01 0 1.02 0 0 Z " fill="#616664" transform="translate(197,324)"/>
<path d="M0 0 C1.9453125 0.2421875 1.9453125 0.2421875 4.125 0.875 C4.84945313 1.07867187 5.57390625 1.28234375 6.3203125 1.4921875 C6.87460937 1.65976562 7.42890625 1.82734375 8 2 C8 2.33 8 2.66 8 3 C4.95878212 3.64795862 1.91694864 4.29298156 -1.125 4.9375 C-1.9809375 5.11990234 -2.836875 5.30230469 -3.71875 5.49023438 C-8.13387646 6.42420343 -12.53928192 7.305298 -17 8 C-17 7.34 -17 6.68 -17 6 C-15.94039063 5.73445313 -14.88078125 5.46890625 -13.7890625 5.1953125 C-12.40094837 4.83890482 -11.01293257 4.48211404 -9.625 4.125 C-8.92632812 3.95097656 -8.22765625 3.77695312 -7.5078125 3.59765625 C-3.35125264 2.55854726 -3.35125264 2.55854726 0 0 Z " fill="#727674" transform="translate(332,330)"/>
<path d="M0 0 C0 0.33 0 0.66 0 1 C-7.26 1 -14.52 1 -22 1 C-22 0.34 -22 -0.32 -22 -1 C-19.27132267 -1.22262638 -16.54308042 -1.42852324 -13.8125 -1.625 C-13.04357422 -1.68945312 -12.27464844 -1.75390625 -11.48242188 -1.8203125 C-7.11875319 -2.11996357 -3.98914662 -2.09450183 0 0 Z " fill="#676C6A" transform="translate(156,115)"/>
<path d="M0 0 C-0.99 0 -1.98 0 -3 0 C-3.061875 0.61875 -3.12375 1.2375 -3.1875 1.875 C-4 4 -4 4 -6.1875 5.375 C-9.72500893 6.1611131 -11.70438407 5.37956016 -15 4 C-3.95833333 -1.74166667 -3.95833333 -1.74166667 0 0 Z " fill="#737774" transform="translate(315,321)"/>
<path d="M0 0 C0.33 0 0.66 0 1 0 C1.19484938 2.43711614 1.38115178 4.87437398 1.5625 7.3125 C1.61857422 8.00279297 1.67464844 8.69308594 1.73242188 9.40429688 C1.96581505 12.62512274 2.03224218 14.90327345 1 18 C0.34 18 -0.32 18 -1 18 C-0.505 9.09 -0.505 9.09 0 0 Z " fill="#404644" transform="translate(82,310)"/>
<path d="M0 0 C1 3 1 3 0.125 5.0625 C-0.24625 5.701875 -0.6175 6.34125 -1 7 C-1.33 7.66 -1.66 8.32 -2 9 C-2.99 8.67 -3.98 8.34 -5 8 C-5.6875 5.9375 -5.6875 5.9375 -6 4 C-5.38125 3.896875 -4.7625 3.79375 -4.125 3.6875 C-1.63473516 3.12474627 -1.63473516 3.12474627 0 0 Z " fill="#787D7D" transform="translate(254,138)"/>
<path d="M0 0 C0.66 0 1.32 0 2 0 C5.07692308 6.4 5.07692308 6.4 4.6875 9.4375 C4.460625 9.953125 4.23375 10.46875 4 11 C0 4.5 0 4.5 0 0 Z " fill="#737776" transform="translate(209,382)"/>
<path d="M0 0 C0.33 0 0.66 0 1 0 C2.2063366 5.22745859 1.75612577 9.76528314 1 15 C0.67 15 0.34 15 0 15 C-1.23615622 9.90085558 -1.67479795 5.02439385 0 0 Z " fill="#414746" transform="translate(82,173)"/>
<path d="M0 0 C0.99 1.32 1.98 2.64 3 4 C2.34 4.66 1.68 5.32 1 6 C-1.625 5.625 -1.625 5.625 -4 5 C-2.68 3.35 -1.36 1.7 0 0 Z " fill="#636968" transform="translate(197,121)"/>
<path d="M0 0 C0.33 0.99 0.66 1.98 1 3 C-2.3 2.01 -5.6 1.02 -9 0 C-9 -0.66 -9 -1.32 -9 -2 C-5.1007255 -3.58859331 -3.25267293 -2.46148222 0 0 Z " fill="#727574" transform="translate(197,340)"/>
<path d="M0 0 C2.02045442 0.60183749 4.02111039 1.27306096 6 2 C6.33 2.66 6.66 3.32 7 4 C5.35 4.66 3.7 5.32 2 6 C1.01 5.01 0.02 4.02 -1 3 C-0.34 3 0.32 3 1 3 C0.67 2.01 0.34 1.02 0 0 Z " fill="#747D78" transform="translate(207,328)"/>
<path d="M0 0 C0.99 0.33 1.98 0.66 3 1 C2.42655063 3.86724686 2.1385485 4.8614515 0 7 C-1 6 -1 6 -1.125 3.5 C-1 1 -1 1 0 0 Z " fill="#616868" transform="translate(231,144)"/>
<path d="M0 0 C2.31 0.33 4.62 0.66 7 1 C5.6875 3.5 5.6875 3.5 4 6 C3.01 6 2.02 6 1 6 C1 5.34 1 4.68 1 4 C1.66 4 2.32 4 3 4 C3 3.01 3 2.02 3 1 C2.01 0.67 1.02 0.34 0 0 Z " fill="#4C5453" transform="translate(340,314)"/>
<path d="M0 0 C0.66 0 1.32 0 2 0 C1.75 3.375 1.75 3.375 1 7 C-0.98 7.99 -0.98 7.99 -3 9 C-2.01 6.03 -1.02 3.06 0 0 Z " fill="#6E7171" transform="translate(432,364)"/>
<path d="M0 0 C0.99 0.33 1.98 0.66 3 1 C-0.465 3.97 -0.465 3.97 -4 7 C-3.04065919 3.16263678 -2.76390737 2.40339772 0 0 Z " fill="#747876" transform="translate(270,145)"/>
<path d="M0 0 C1.98 1.65 3.96 3.3 6 5 C5.34 5.66 4.68 6.32 4 7 C4 6.34 4 5.68 4 5 C2.35 4.67 0.7 4.34 -1 4 C-0.67 2.68 -0.34 1.36 0 0 Z " fill="#777B77" transform="translate(235,129)"/>
<path d="M0 0 C4.875 1.75 4.875 1.75 6 4 C5.34 4 4.68 4 4 4 C3.67 4.66 3.34 5.32 3 6 C0 2.25 0 2.25 0 0 Z " fill="#6C716E" transform="translate(223,121)"/>
</svg>
